<svg xmlns="http://www.w3.org/2000/svg" width="23.398" height="19.814" viewBox="0 0 23.398 19.814"><defs><style>.a{fill:#fff;stroke:#fff;stroke-width:0.7px;}</style></defs><g transform="translate(-27.65 -128.15)"><path class="a" d="M22.4,10.752a.3.3,0,0,0-.3.3v7.168a.3.3,0,0,1-.3.3H.9a.3.3,0,0,1-.3-.3V11.05a.3.3,0,1,0-.6,0v7.168a.9.9,0,0,0,.9.9H21.8a.9.9,0,0,0,.9-.9V11.05A.3.3,0,0,0,22.4,10.752ZM15.231,2.987a.3.3,0,0,0,.3-.3V.9a.9.9,0,0,0-.9-.9H8.064a.9.9,0,0,0-.9.9V2.688a.3.3,0,1,0,.6,0V.9a.3.3,0,0,1,.3-.3h6.57a.3.3,0,0,1,.3.3V2.688A.3.3,0,0,0,15.231,2.987ZM21.8,4.181H.9a.9.9,0,0,0-.9.9V8.039C0,9.7,5.648,11.921,11.424,11.921c5.7,0,11.274-2.223,11.274-3.883V5.077A.9.9,0,0,0,21.8,4.181Zm.3,3.857c0,1.054-5.051,3.285-10.677,3.285C5.719,11.324.6,9.093.6,8.039V5.077a.3.3,0,0,1,.3-.3H21.8a.3.3,0,0,1,.3.3Zm-10.677,5.7c.563,0,1.149-.023,1.741-.069a.3.3,0,0,0,.274-.321.293.293,0,0,0-.321-.274,21.368,21.368,0,0,1-3.535-.012.3.3,0,1,0-.05.595c.643.054,1.279.082,1.892.082Z" transform="translate(28 128.5)"/></g></svg>