<svg xmlns="http://www.w3.org/2000/svg" width="64.091" height="79.61" viewBox="0 0 64.091 79.61"><defs><style>.a{fill:#42c2e0;stroke:#42c2e0;stroke-width:0.5px;}</style></defs><g transform="translate(-659.75 -405.75)"><g transform="translate(421.738 265.248)"><path class="a" d="M286.486,177.683H253.628a.65.65,0,0,1-.65-.65V164.949a.651.651,0,0,1,.413-.605l11.289-4.436a.648.648,0,0,1,.687.136l4.517,4.342,4.87-4.358a.646.646,0,0,1,.671-.12l11.3,4.436a.651.651,0,0,1,.413.605v12.084A.65.65,0,0,1,286.486,177.683Zm-32.208-1.3h31.558V165.392l-10.514-4.128-5.02,4.493a.651.651,0,0,1-.884-.016l-4.651-4.471-10.489,4.122Z"/><path class="a" d="M280.951,177.658H259.163a.65.65,0,0,1-.65-.65v-7.577a.65.65,0,0,1,1.3,0v6.927H280.3v-6.927a.65.65,0,0,1,1.3,0v7.577A.651.651,0,0,1,280.951,177.658Z"/><path class="a" d="M275.492,166.96H264.62a.65.65,0,0,1-.65-.65v-5.8a.65.65,0,0,1,1.3,0v5.148h9.572v-5.148a.65.65,0,0,1,1.3,0v5.8A.65.65,0,0,1,275.492,166.96Z"/><path class="a" d="M271.691,170.744h-3.267a.65.65,0,0,1-.651-.65V166.31a.65.65,0,0,1,.651-.649h3.267a.65.65,0,0,1,.651.649v3.784A.65.65,0,0,1,271.691,170.744Zm-2.617-1.3h1.967V166.96h-1.967Z"/><path class="a" d="M273.024,177.683h-6.276a.65.65,0,0,1-.632-.8l1.676-6.94a.649.649,0,0,1,.632-.5h3.267a.651.651,0,0,1,.639.527l1.333,6.94a.651.651,0,0,1-.639.772Zm-5.451-1.3h4.664l-1.083-5.639h-2.219Z"/><path class="a" d="M270.2,158.337a8.793,8.793,0,1,1,8.8-8.792A8.8,8.8,0,0,1,270.2,158.337Zm0-16.285a7.493,7.493,0,1,0,7.5,7.493A7.5,7.5,0,0,0,270.2,142.052Z"/><path class="a" d="M276.381,148.329a9.4,9.4,0,0,1-5.739-1.809.65.65,0,1,1,.794-1.029,8.721,8.721,0,0,0,6.552,1.4.65.65,0,0,1,.223,1.281A10.748,10.748,0,0,1,276.381,148.329Z"/><path class="a" d="M265.912,148.172a10.1,10.1,0,0,1-3.651-.653.65.65,0,0,1,.468-1.213,8.808,8.808,0,0,0,3.183.567c3.65,0,6.619-2.04,6.619-4.547a.65.65,0,0,1,1.3,0C273.832,145.55,270.279,148.172,265.912,148.172Z"/><path class="a" d="M301.2,219.862a.65.65,0,0,1-.65-.65v-3.043a4.312,4.312,0,0,0-4.312-4.3h-7.157a4.312,4.312,0,0,0-4.312,4.3v3.043a.65.65,0,0,1-1.3,0v-3.043a5.613,5.613,0,0,1,5.612-5.6h7.157a5.613,5.613,0,0,1,5.612,5.6v3.043A.65.65,0,0,1,301.2,219.862Zm-23.479,0a.65.65,0,0,1-.651-.65v-3.043a4.309,4.309,0,0,0-4.307-4.3h-7.161a4.31,4.31,0,0,0-4.308,4.3v3.043a.65.65,0,0,1-1.3,0v-3.043a5.612,5.612,0,0,1,5.609-5.6h7.161a5.612,5.612,0,0,1,5.608,5.6v3.043A.65.65,0,0,1,277.724,219.862Zm-21.734,0a.65.65,0,0,1-.65-.65v-3.043a4.31,4.31,0,0,0-4.309-4.3h-7.16a4.31,4.31,0,0,0-4.309,4.3v3.043a.65.65,0,0,1-1.3,0v-3.043a5.612,5.612,0,0,1,5.609-5.6h7.16a5.612,5.612,0,0,1,5.609,5.6v3.043A.65.65,0,0,1,255.99,219.862Zm36.547-10.174a5.3,5.3,0,1,1,5.305-5.307A5.314,5.314,0,0,1,292.537,209.688Zm-3.993-4.971a4.005,4.005,0,0,0,8-.336,4.154,4.154,0,0,0-.024-.449,5.4,5.4,0,0,1-3.271-.784A5.353,5.353,0,0,1,288.544,204.717Zm.1-1.3a4.01,4.01,0,0,0,3.972-1.534.652.652,0,0,1,.441-.254.662.662,0,0,1,.489.142,4.081,4.081,0,0,0,2.6.881,4.009,4.009,0,0,0-7.5.765Zm-19.589,6.273a5.3,5.3,0,1,1,5.306-5.307A5.314,5.314,0,0,1,269.059,209.688Zm-3.994-4.971a4.007,4.007,0,0,0,8-.336,3.912,3.912,0,0,0-.024-.449,5.436,5.436,0,0,1-3.271-.784A5.433,5.433,0,0,1,265.065,204.717Zm.105-1.3a4.01,4.01,0,0,0,3.97-1.531.647.647,0,0,1,.44-.257.663.663,0,0,1,.49.141,4.047,4.047,0,0,0,2.6.882,4.011,4.011,0,0,0-7.5.765Zm-17.846,6.273a5.3,5.3,0,1,1,5.306-5.307A5.313,5.313,0,0,1,247.324,209.688Zm-3.993-4.972a4.007,4.007,0,0,0,8-.335,3.906,3.906,0,0,0-.026-.449,5.363,5.363,0,0,1-3.268-.784,5.3,5.3,0,0,1-4.706,1.568Zm.1-1.3a4,4,0,0,0,3.97-1.53.648.648,0,0,1,.928-.118,4.023,4.023,0,0,0,2.6.884,4.012,4.012,0,0,0-7.5.764Z"/><path class="a" d="M292.824,197.84a.65.65,0,0,1-.65-.65v-8.939l-44.233-.491v9.22a.65.65,0,0,1-1.3,0V187.1a.65.65,0,0,1,.193-.462.738.738,0,0,1,.464-.187l45.533.5a.651.651,0,0,1,.644.65v9.582A.65.65,0,0,1,292.824,197.84Z"/><path class="a" d="M269.886,192.792a.65.65,0,0,1-.651-.65V177.033a.651.651,0,0,1,1.3,0v15.109A.65.65,0,0,1,269.886,192.792Z"/></g></g></svg>