<svg xmlns="http://www.w3.org/2000/svg" width="64.314" height="79.687" viewBox="0 0 64.314 79.687"><defs><style>.a{fill:#42c2e0;stroke:#42c2e0;stroke-width:0.5px;}</style></defs><g transform="translate(-933.761 -405.75)"><g transform="translate(934 406)"><g transform="translate(10.188 12.562)"><path class="a" d="M431.3,739.877H378.961a.651.651,0,0,1-.651-.65V715.47a.658.658,0,0,1,.213-.482c1.225-1.111,2.295-2.062,3.231-2.893,6.27-5.57,6.27-5.57,6.129-13.616-.024-1.3-.05-2.809-.056-4.573-3.927.45-7.008-.205-9.264-1.946a.652.652,0,0,1-.253-.515V673.9a.651.651,0,0,1,.651-.65h12.7a.651.651,0,0,1,.588.928,2.88,2.88,0,0,0-.269,1.225v2.9h26.207v-2.9a2.874,2.874,0,0,0-.276-1.225.651.651,0,0,1,.588-.928h12.8a.65.65,0,0,1,.65.65v65.325A.65.65,0,0,1,431.3,739.877Zm-51.686-1.3h51.035V674.553H419.393a4.144,4.144,0,0,1,.089.852v3.547a.651.651,0,0,1-.65.651H391.324a.651.651,0,0,1-.65-.651v-3.547a4.191,4.191,0,0,1,.087-.852h-11.15v16.565c2.105,1.495,4.986,1.956,8.771,1.405a.67.67,0,0,1,.519.153.647.647,0,0,1,.225.491c0,2.077.03,3.814.057,5.29.15,8.563.088,8.7-6.566,14.609-.878.781-1.875,1.665-3.006,2.692Z" transform="translate(-378.31 -673.252)"/></g><g transform="translate(16.958 28.112)"><path class="a" d="M412.81,690.1H385.73a.651.651,0,0,1,0-1.3h27.08a.651.651,0,0,1,0,1.3Z" transform="translate(-385.08 -688.802)"/></g><g transform="translate(49.212 28.112)"><path class="a" d="M424.522,690.1h-6.538a.651.651,0,0,1,0-1.3h6.538a.651.651,0,1,1,0,1.3Z" transform="translate(-417.334 -688.802)"/></g><g transform="translate(19.71 33.845)"><path class="a" d="M412.81,695.836H388.482a.651.651,0,0,1,0-1.3H412.81a.651.651,0,0,1,0,1.3Z" transform="translate(-387.832 -694.535)"/></g><g transform="translate(49.212 33.845)"><path class="a" d="M424.522,695.836h-6.538a.651.651,0,0,1,0-1.3h6.538a.651.651,0,1,1,0,1.3Z" transform="translate(-417.334 -694.535)"/></g><g transform="translate(19.794 39.576)"><path class="a" d="M412.81,701.566H388.566a.65.65,0,1,1,0-1.3H412.81a.65.65,0,1,1,0,1.3Z" transform="translate(-387.916 -700.266)"/></g><g transform="translate(49.212 39.576)"><path class="a" d="M424.522,701.566h-6.538a.65.65,0,1,1,0-1.3h6.538a.65.65,0,1,1,0,1.3Z" transform="translate(-417.334 -700.266)"/></g><g transform="translate(19.002 45.308)"><path class="a" d="M412.81,707.3H387.774a.651.651,0,0,1,0-1.3H412.81a.651.651,0,0,1,0,1.3Z" transform="translate(-387.124 -705.998)"/></g><g transform="translate(49.212 45.308)"><path class="a" d="M424.522,707.3h-6.538a.651.651,0,0,1,0-1.3h6.538a.651.651,0,1,1,0,1.3Z" transform="translate(-417.334 -705.998)"/></g><g transform="translate(16.958 51.041)"><path class="a" d="M412.81,713.032H385.73a.65.65,0,0,1,0-1.3h27.08a.65.65,0,0,1,0,1.3Z" transform="translate(-385.08 -711.731)"/></g><g transform="translate(49.212 51.041)"><path class="a" d="M424.522,713.032h-6.538a.65.65,0,0,1,0-1.3h6.538a.65.65,0,1,1,0,1.3Z" transform="translate(-417.334 -711.731)"/></g><g transform="translate(16.958 56.773)"><path class="a" d="M412.81,718.764H385.73a.65.65,0,0,1,0-1.3h27.08a.65.65,0,0,1,0,1.3Z" transform="translate(-385.08 -717.463)"/></g><g transform="translate(49.212 56.773)"><path class="a" d="M424.522,718.764h-6.538a.65.65,0,0,1,0-1.3h6.538a.65.65,0,1,1,0,1.3Z" transform="translate(-417.334 -717.463)"/></g><g transform="translate(16.958 62.495)"><path class="a" d="M412.81,724.486H385.73a.651.651,0,0,1,0-1.3h27.08a.651.651,0,0,1,0,1.3Z" transform="translate(-385.08 -723.185)"/></g><g transform="translate(49.212 62.495)"><path class="a" d="M424.522,724.486h-6.538a.651.651,0,0,1,0-1.3h6.538a.651.651,0,1,1,0,1.3Z" transform="translate(-417.334 -723.185)"/></g><g transform="translate(16.958 68.229)"><path class="a" d="M412.81,730.22H385.73a.65.65,0,0,1,0-1.3h27.08a.65.65,0,0,1,0,1.3Z" transform="translate(-385.08 -728.919)"/></g><g transform="translate(49.212 68.229)"><path class="a" d="M424.522,730.22h-6.538a.65.65,0,0,1,0-1.3h6.538a.65.65,0,1,1,0,1.3Z" transform="translate(-417.334 -728.919)"/></g><g transform="translate(0 29.868)"><path class="a" d="M378.672,716.384a.652.652,0,0,1-.437-.169c-1.455-1.318-2.7-2.405-3.758-3.331-6.369-5.565-6.428-5.709-6.339-15.375.011-1.266.024-2.7.024-4.342a.649.649,0,0,1,.234-.5.66.66,0,0,1,.534-.141,12.319,12.319,0,0,0,9.381-1.86.65.65,0,0,1,.781.045c2.141,1.814,5.175,2.407,9.291,1.811a.654.654,0,0,1,.518.153.647.647,0,0,1,.225.491c0,2.074.03,3.81.056,5.284.151,8.566.089,8.7-6.571,14.62-1,.892-2.163,1.922-3.5,3.143A.651.651,0,0,1,378.672,716.384Zm-9.21-22.455c0,1.332-.015,2.522-.025,3.592-.084,9.16-.084,9.16,5.9,14.384.958.836,2.062,1.8,3.338,2.95,1.16-1.052,2.181-1.958,3.077-2.755,6.276-5.578,6.276-5.578,6.134-13.626-.023-1.3-.049-2.807-.055-4.568-3.9.441-6.944-.194-9.2-1.9A13.476,13.476,0,0,1,369.462,693.929Z" transform="translate(-368.122 -690.558)"/></g><g transform="translate(7.538 36.469)"><path class="a" d="M378.669,703.19a3.016,3.016,0,1,1,3.01-3.016A3.016,3.016,0,0,1,378.669,703.19Zm0-4.73a1.714,1.714,0,1,0,1.709,1.714A1.712,1.712,0,0,0,378.669,698.46Z" transform="translate(-375.66 -697.159)"/></g><g transform="translate(8.58 41.07)"><path class="a" d="M379.989,707.089h-2.637a.651.651,0,0,1-.642-.754l.647-4a.652.652,0,0,1,.288-.442.66.66,0,0,1,.521-.082,1.584,1.584,0,0,0,1.042-.017.648.648,0,0,1,.546.064.657.657,0,0,1,.3.46l.578,4.029a.654.654,0,0,1-.153.518A.647.647,0,0,1,379.989,707.089Zm-1.874-1.3h1.124l-.374-2.606a2.778,2.778,0,0,1-.329,0Z" transform="translate(-376.702 -701.76)"/></g><g transform="translate(22.552 10.519)"><path class="a" d="M418.832,679.6H391.324a.651.651,0,0,1-.65-.651v-3.547a4.2,4.2,0,0,1,4.194-4.2h20.42a4.2,4.2,0,0,1,4.194,4.2v3.547A.651.651,0,0,1,418.832,679.6Zm-26.857-1.3h26.207v-2.9a2.9,2.9,0,0,0-2.894-2.9h-20.42a2.9,2.9,0,0,0-2.893,2.9Z" transform="translate(-390.674 -671.209)"/></g><g transform="translate(30.064 5.378)"><path class="a" d="M411.319,672.51H398.837a.65.65,0,0,1-.651-.651v-5.14a.65.65,0,0,1,.651-.651h3.09a.651.651,0,0,1,.565.33,2.968,2.968,0,0,0,5.172,0,.651.651,0,0,1,.565-.33h3.09a.65.65,0,0,1,.651.651v5.14A.65.65,0,0,1,411.319,672.51Zm-11.832-1.3h11.182v-3.84h-2.081a4.267,4.267,0,0,1-7.02,0h-2.081Z" transform="translate(-398.186 -666.068)"/></g><g transform="translate(32.695)"><path class="a" d="M405.075,669.21a4.26,4.26,0,1,1,4.264-4.256A4.262,4.262,0,0,1,405.075,669.21Zm0-7.219a2.959,2.959,0,1,0,2.963,2.963A2.963,2.963,0,0,0,405.075,661.991Z" transform="translate(-400.817 -660.69)"/></g></g></g></svg>