<svg xmlns="http://www.w3.org/2000/svg" width="15.695" height="20.693" viewBox="0 0 15.695 20.693"><defs><style>.a{fill:#fff;stroke:#fff;stroke-width:0.7px;}</style></defs><g transform="translate(-31.65 -277.15)"><path class="a" d="M.937,19.993H14.058a.938.938,0,0,0,.937-.937V5.935c0-.011,0-.019-.006-.029a.292.292,0,0,0-.008-.041.3.3,0,0,0-.056-.119c0-.006,0-.012-.008-.018L9.918.1,9.912.1A.309.309,0,0,0,9.773.017.217.217,0,0,0,9.738.011.314.314,0,0,0,9.684,0H.937A.938.938,0,0,0,0,.937V19.056a.938.938,0,0,0,.937.937ZM10,1.134l3.991,4.489H10.309c-.137,0-.312-.262-.312-.469ZM.625.937A.313.313,0,0,1,.937.625H9.372v4.53a1.084,1.084,0,0,0,.937,1.093H14.37V19.056a.313.313,0,0,1-.312.312H.937a.309.309,0,0,1-.312-.312Zm2.812,7.81h8.122a.312.312,0,1,0,0-.625H3.436a.312.312,0,1,0,0,.625Zm0,2.5h8.122a.312.312,0,1,0,0-.625H3.436a.312.312,0,0,0,0,.625Zm0-5H7.185a.312.312,0,0,0,0-.625H3.436a.312.312,0,0,0,0,.625Zm0,7.5h8.122a.312.312,0,1,0,0-.625H3.436a.312.312,0,0,0,0,.625Zm0,2.5h8.122a.312.312,0,1,0,0-.625H3.436a.312.312,0,0,0,0,.625Z" transform="translate(32 277.5)"/></g></svg>