<svg xmlns="http://www.w3.org/2000/svg" width="27.062" height="20.773" viewBox="0 0 27.062 20.773"><defs><style>.a{fill:#fff;stroke:#fff;stroke-width:0.7px;}</style></defs><g transform="translate(-25.635 -843.588)"><path class="a" d="M2.315,13.617a.517.517,0,0,1,.3.287l.219.529a.511.511,0,0,1-.019.4l-.876,1.432a.886.886,0,0,0,.1,1.025l.742.741a.913.913,0,0,0,1.011.091l1.432-.876a.5.5,0,0,1,.417-.011l.529.218a.512.512,0,0,1,.269.3l.393,1.633a.907.907,0,0,0,.769.663s.218.02.544.02.544-.02.544-.02a.906.906,0,0,0,.768-.663l.394-1.633a.517.517,0,0,1,.286-.3l.529-.219a.547.547,0,0,1,.4.019l1.432.876a.833.833,0,0,0,.436.118.88.88,0,0,0,.588-.221l.741-.742a.882.882,0,0,0,.091-1.011l-.876-1.432a.519.519,0,0,1-.011-.417l.218-.529a.512.512,0,0,1,.3-.269l1.633-.393a.907.907,0,0,0,.663-.769s.02-.218.02-.544-.02-.544-.02-.544a.907.907,0,0,0-.663-.769l-1.632-.393a.517.517,0,0,1-.3-.287l-.219-.529a.511.511,0,0,1,.019-.4l.876-1.432a.886.886,0,0,0-.1-1.025l-.742-.741A.911.911,0,0,0,12.506,5.7l-1.432.876a.5.5,0,0,1-.417.011l-.529-.218a.511.511,0,0,1-.268-.3L9.466,4.442A.907.907,0,0,0,8.7,3.779s-.219-.019-.545-.019-.544.02-.544.02a.907.907,0,0,0-.769.663L6.446,6.075a.517.517,0,0,1-.287.3L5.63,6.6a.55.55,0,0,1-.4-.019L3.8,5.7a.9.9,0,0,0-1.025.1l-.741.742a.882.882,0,0,0-.091,1.011l.876,1.432a.519.519,0,0,1,.011.417l-.218.529a.512.512,0,0,1-.3.269L.682,10.6a.907.907,0,0,0-.663.769S0,11.585,0,11.911s.02.544.02.544a.907.907,0,0,0,.663.769l1.632.393ZM.627,11.911c0-.287.017-.481.018-.487a.292.292,0,0,1,.186-.216l1.633-.393a1.12,1.12,0,0,0,.735-.657l.2-.494a1.128,1.128,0,0,0-.047-1L2.478,7.232a.272.272,0,0,1,.011-.255L3.2,6.261a.283.283,0,0,1,.268-.024L4.9,7.114a1.181,1.181,0,0,0,.983.055l.494-.2a1.128,1.128,0,0,0,.674-.742L7.449,4.59A.292.292,0,0,1,7.665,4.4c.006,0,.2-.017.487-.017s.481.017.487.018a.292.292,0,0,1,.216.186l.393,1.632a1.12,1.12,0,0,0,.657.736l.494.2a1.151,1.151,0,0,0,1-.047l1.432-.876a.317.317,0,0,1,.255.011l.716.715a.268.268,0,0,1,.024.268L12.95,8.664a1.12,1.12,0,0,0-.055.983l.2.494a1.128,1.128,0,0,0,.742.674l1.632.393a.292.292,0,0,1,.186.216c0,.006.017.2.017.487s-.017.481-.018.487a.292.292,0,0,1-.186.216l-1.633.393a1.12,1.12,0,0,0-.735.657l-.2.494a1.128,1.128,0,0,0,.047,1l.876,1.432a.272.272,0,0,1-.011.255l-.715.716a.25.25,0,0,1-.157.05.217.217,0,0,1-.11-.026L11.4,16.709a1.183,1.183,0,0,0-.983-.055l-.494.2a1.127,1.127,0,0,0-.673.742l-.393,1.632a.292.292,0,0,1-.216.186c-.007,0-.2.017-.488.017s-.481-.017-.487-.018a.292.292,0,0,1-.216-.186L7.056,17.6a1.12,1.12,0,0,0-.657-.735l-.494-.2a1.024,1.024,0,0,0-.448-.1,1.072,1.072,0,0,0-.553.143l-1.432.876a.319.319,0,0,1-.255-.011L2.5,16.858a.268.268,0,0,1-.024-.268l.876-1.432a1.12,1.12,0,0,0,.055-.983l-.2-.494a1.128,1.128,0,0,0-.742-.674L.83,12.614A.292.292,0,0,1,.644,12.4c0-.006-.017-.2-.017-.487ZM8.152,15.36A3.449,3.449,0,1,0,4.7,11.911,3.453,3.453,0,0,0,8.152,15.36Zm0-6.271A2.822,2.822,0,1,1,5.33,11.911,2.825,2.825,0,0,1,8.152,9.09Zm9.078-5.76a.266.266,0,0,1-.162.087L15.9,3.4a.728.728,0,0,0-.66.468s-.051.146-.108.37-.08.377-.08.377a.728.728,0,0,0,.366.728l1.029.539a.273.273,0,0,1,.1.171l.058.4a.267.267,0,0,1-.053.176l-.829.813a.713.713,0,0,0-.119.823l.376.627a.725.725,0,0,0,.772.268l1.144-.35a.271.271,0,0,1,.159.052l.323.238a.269.269,0,0,1,.087.162l-.011,1.161a.726.726,0,0,0,.468.667s.146.051.37.108.377.08.377.08c.016,0,.082.008.1.008a.734.734,0,0,0,.63-.374l.539-1.029a.273.273,0,0,1,.171-.1l.416-.06a.274.274,0,0,1,.157.054l.813.829a.7.7,0,0,0,.823.119l.626-.376a.71.71,0,0,0,.269-.772l-.346-1.108a.271.271,0,0,1,.049-.2l.238-.323a.266.266,0,0,1,.162-.087l1.167.011a.728.728,0,0,0,.66-.468s.051-.146.108-.37.08-.377.08-.377a.728.728,0,0,0-.366-.728l-1.029-.539a.273.273,0,0,1-.1-.171l-.058-.4a.267.267,0,0,1,.053-.176l.829-.813a.713.713,0,0,0,.119-.823L25.4,2.387a.726.726,0,0,0-.772-.269l-1.144.35a.271.271,0,0,1-.159-.052L23,2.177a.269.269,0,0,1-.087-.162L22.929.854a.726.726,0,0,0-.468-.667s-.146-.051-.37-.108S21.714,0,21.714,0c-.016,0-.082-.007-.1-.007a.734.734,0,0,0-.63.374l-.539,1.029a.273.273,0,0,1-.171.1l-.416.06A.274.274,0,0,1,19.7,1.5L18.89.676a.7.7,0,0,0-.823-.119l-.627.375a.71.71,0,0,0-.269.772l.346,1.108a.271.271,0,0,1-.049.2l-.238.323Zm.514.359.215-.292a.869.869,0,0,0,.156-.771l-.346-1.107c0-.018.011-.057.008-.058l.594-.356.071.011.813.829a.886.886,0,0,0,.605.242.592.592,0,0,0,.128-.012l.361-.053A.874.874,0,0,0,21,1.685L21.542.657a.116.116,0,0,1,.075-.038c.007,0,.135.022.322.068s.309.089.315.092A.114.114,0,0,1,22.3.847l-.011,1.161a.867.867,0,0,0,.356.683l.292.215a.883.883,0,0,0,.771.156l1.112-.346c.026,0,.056.016.052.008l.356.594a.1.1,0,0,1-.011.071L24.39,4.2a.863.863,0,0,0-.23.733l.053.361a.873.873,0,0,0,.436.654l1.028.539a.118.118,0,0,1,.038.075c0,.007-.022.135-.068.322s-.089.309-.092.315a.114.114,0,0,1-.069.049l-1.168-.011a.87.87,0,0,0-.677.356l-.214.292a.869.869,0,0,0-.156.771l.346,1.107c0,.017-.011.057-.008.058l-.594.356-.071-.011-.813-.829a.886.886,0,0,0-.605-.242.592.592,0,0,0-.128.012l-.361.053a.874.874,0,0,0-.654.435l-.539,1.028a.116.116,0,0,1-.075.038h0c-.007,0-.135-.022-.322-.068s-.309-.089-.315-.092a.114.114,0,0,1-.049-.069L19.1,9.273a.867.867,0,0,0-.356-.683l-.292-.215a.869.869,0,0,0-.549-.188.749.749,0,0,0-.223.033l-1.112.346c-.027,0-.056-.014-.052-.008l-.356-.594a.1.1,0,0,1,.011-.071L17,7.079a.863.863,0,0,0,.23-.733l-.053-.36a.873.873,0,0,0-.436-.654l-1.028-.539a.118.118,0,0,1-.038-.075c0-.007.022-.135.068-.322s.089-.309.092-.315a.114.114,0,0,1,.069-.049l1.168.011a.87.87,0,0,0,.677-.356Zm2.949,3.834a1.881,1.881,0,1,0-1.881-1.881A1.884,1.884,0,0,0,20.693,7.522Zm0-3.135a1.254,1.254,0,1,1-1.254,1.254A1.255,1.255,0,0,1,20.693,4.387Z" transform="translate(26 843.946)"/></g></svg>