<svg xmlns="http://www.w3.org/2000/svg" width="26.284" height="26.284" viewBox="0 0 26.284 26.284"><defs><style>.a{fill:none;}.b{fill:#fff;}</style></defs><g transform="translate(-26 -756)"><g transform="translate(-1219 -503)"><circle class="a" cx="13.142" cy="13.142" r="13.142" transform="translate(1245 1259)"/><path class="b" d="M1258.142,1285.284a13.142,13.142,0,1,1,13.142-13.142A13.157,13.157,0,0,1,1258.142,1285.284Zm0-24.284a11.142,11.142,0,1,0,11.142,11.142A11.156,11.156,0,0,0,1258.142,1261Z"/></g><g transform="translate(-1219 -503)"><path class="b" d="M1256.94,1273.721a2.435,2.435,0,0,1,.136-.868,1.806,1.806,0,0,1,.459-.663q.476-.457.876-.8t.688-.637a3.289,3.289,0,0,0,.451-.562,1.043,1.043,0,0,0,.161-.552,1.118,1.118,0,0,0-.348-.875,1.264,1.264,0,0,0-.876-.315,1.591,1.591,0,0,0-1.215.442,1.718,1.718,0,0,0-.468,1.071l-2.618-.17a3.921,3.921,0,0,1,1.326-2.745,4.431,4.431,0,0,1,2.924-.944,4.987,4.987,0,0,1,1.471.212,3.635,3.635,0,0,1,1.215.638,3.05,3.05,0,0,1,.833,1.054,3.264,3.264,0,0,1,.306,1.445,3.611,3.611,0,0,1-.1.893,2.787,2.787,0,0,1-.348.791,4.709,4.709,0,0,1-.646.79,11.219,11.219,0,0,1-1.012.876,1.754,1.754,0,0,0-.527.594,1.343,1.343,0,0,0-.136.578v.494h-2.55Zm-.289,3.263a1.581,1.581,0,0,1,.119-.612,1.512,1.512,0,0,1,.833-.833,1.635,1.635,0,0,1,1.224,0,1.5,1.5,0,0,1,.833.833,1.636,1.636,0,0,1,0,1.225,1.5,1.5,0,0,1-.833.833,1.647,1.647,0,0,1-1.224,0,1.512,1.512,0,0,1-.833-.833A1.586,1.586,0,0,1,1256.651,1276.984Z"/></g></g></svg>