
<svg xmlns="http://www.w3.org/2000/svg" width="31.608" height="42.62" viewBox="0 0 31.608 42.62"><defs><style>.a{fill:#a3efed;}.b{fill:#c5f9f5;}.c{fill:#4c4aa5;}</style></defs><g transform="translate(-23.059 -37)"><path class="a" d="M387.408,667.913l7.13-4.579,14.327,22.036a1.032,1.032,0,0,1-.883,1.557l-7.5.178a.972.972,0,0,1-.844-.434Z" transform="translate(-354.351 -607.485)"/><path class="b" d="M133.178,102.676l-5.252-2.728a1.248,1.248,0,0,1-.474-1.7l16.738-32.323a1.478,1.478,0,0,1,.733-.659L153.859,61a1.067,1.067,0,0,1,.8-.066,1.235,1.235,0,0,1,.636,1.769L134.84,102.087a1.248,1.248,0,0,1-1.662.589" transform="translate(-102.295 -23.689)"/><path class="c" d="M72.795,97.232H65.953a1.294,1.294,0,0,1-1.391-1.168V59.352a1.119,1.119,0,0,1,.561-.937L71.965,54.9c.918-.573,2.221-.023,2.221.937V96.064a1.294,1.294,0,0,1-1.391,1.168" transform="translate(-41.503 -17.662)"/></g></svg>