<svg xmlns="http://www.w3.org/2000/svg" width="24.198" height="17.515" viewBox="0 0 24.198 17.515"><defs><style>.a{fill:#fff;stroke:#fff;stroke-width:0.5px;}</style></defs><g transform="translate(-26.75 -353.25)"><path class="a" d="M22.432,0a.265.265,0,0,0-.265.266V16.749a.265.265,0,1,0,.531,0V.266A.266.266,0,0,0,22.432,0ZM20.27.64a.267.267,0,0,0-.28.029l-.3.237a13.958,13.958,0,0,1-9.638,3.348H2.678a1.412,1.412,0,0,0-1.4,1.422v5.7a1.4,1.4,0,0,0,1.4,1.389h1.8a5,5,0,0,0,1.3,3.063,4.325,4.325,0,0,0,3.2,1.19.266.266,0,1,0,0-.532,3.818,3.818,0,0,1-2.821-1.03,4.5,4.5,0,0,1-1.15-2.692H6.61a2.581,2.581,0,0,0,.677,1.49,2.3,2.3,0,0,0,1.7.637.266.266,0,0,0,0-.532,1.792,1.792,0,0,1-1.321-.476,2.04,2.04,0,0,1-.522-1.119h2.869a14.068,14.068,0,0,1,9.7,3.366l.278.219a.266.266,0,0,0,.429-.21V.879A.264.264,0,0,0,20.27.64ZM1.81,11.372v-5.7a.88.88,0,0,1,.867-.89H4.469v7.444H2.678A.853.853,0,0,1,1.81,11.372Zm18.078,4.216a14.5,14.5,0,0,0-9.873-3.359H6.933a.273.273,0,0,0-.079-.016h0a.264.264,0,0,0-.082.016H5V4.785h5.051a14.391,14.391,0,0,0,9.837-3.358ZM-.734,11.622a.266.266,0,0,0,.266-.266v-5.7a.266.266,0,0,0-.266-.266A.266.266,0,0,0-1,5.659v5.7A.266.266,0,0,0-.734,11.622Z" transform="translate(28 353.5)"/></g></svg>