<svg width="27" height="27" viewBox="0 0 27 27" fill="none" xmlns="http://www.w3.org/2000/svg">
<g clip-path="url(#clip0)">
<path d="M22.1089 19.5105H4.89111C4.62805 19.5105 4.3823 19.3805 4.23419 19.1632C1.96249 15.8318 1.78822 9.42358 1.77504 8.47231C1.77422 8.43502 1.7738 8.39732 1.7738 8.35983C1.7738 7.92127 2.12894 7.56552 2.5675 7.5647H2.56915C3.00688 7.5647 3.36263 7.9188 3.36428 8.35674C3.36428 8.3621 3.36449 8.40907 3.36634 8.49229C3.43638 10.7547 5.29877 12.5734 7.57788 12.5734C9.90128 12.5734 11.7915 10.6832 11.7915 8.35983C11.7915 7.92065 12.1476 7.5647 12.5866 7.5647H14.4132C14.8523 7.5647 15.2083 7.92065 15.2083 8.35983C15.2083 10.6832 17.0987 12.5734 19.4221 12.5734C21.7033 12.5734 23.5669 10.7514 23.6339 8.48611C23.6353 8.40659 23.6357 8.3621 23.6357 8.35695C23.6374 7.9188 23.9929 7.5647 24.4308 7.5647H24.4323C24.8708 7.56552 25.226 7.92127 25.226 8.35983C25.226 8.39753 25.2256 8.43502 25.2249 8.47251C25.2116 9.42358 25.0373 15.832 22.7658 19.1634C22.6177 19.3805 22.3717 19.5105 22.1089 19.5105Z" fill="#FFF780"/>
<path d="M24.4323 7.5647C24.4319 7.5647 24.4315 7.5647 24.4309 7.5647C23.9931 7.5647 23.6374 7.9188 23.6357 8.35674C23.6357 8.3621 23.6355 8.40659 23.6339 8.48611C23.5669 10.7512 21.7033 12.5734 19.4221 12.5734C17.0987 12.5734 15.2085 10.6832 15.2085 8.35983C15.2085 7.92065 14.8524 7.5647 14.4134 7.5647H13.5002V19.5103H22.1089C22.372 19.5103 22.6177 19.3803 22.7658 19.1632C25.0375 15.8318 25.2118 9.42338 25.225 8.47231C25.2258 8.43502 25.2262 8.39732 25.2262 8.35983C25.226 7.92127 24.8709 7.56552 24.4323 7.5647Z" fill="#FFC06A"/>
<path d="M13.5 4.85156C12.0834 4.85156 10.9308 6.0041 10.9308 7.42072C10.9308 8.83733 12.0834 9.98966 13.5 9.98966C14.9166 9.98966 16.0692 8.83733 16.0692 7.42072C16.0692 6.0041 14.9166 4.85156 13.5 4.85156Z" fill="#FFC02E"/>
<path d="M13.5002 4.85156V9.98987C14.9169 9.98966 16.0692 8.83733 16.0692 7.42072C16.0692 6.0041 14.9167 4.85177 13.5002 4.85156Z" fill="#FFA73B"/>
<path d="M2.56915 6.83427C1.15253 6.83427 0 7.98681 0 9.40343C0 10.82 1.15253 11.9726 2.56915 11.9726C3.98577 11.9726 5.1381 10.82 5.1381 9.40343C5.1381 7.98681 3.98577 6.83427 2.56915 6.83427Z" fill="#FFC02E"/>
<path d="M24.4309 6.83427C23.0143 6.83427 21.8619 7.98681 21.8619 9.40343C21.8619 10.8198 23.0143 11.9724 24.4309 11.9724C25.8475 11.9724 27 10.8198 27 9.40343C27 7.98681 25.8475 6.83427 24.4309 6.83427Z" fill="#FFA73B"/>
<path d="M22.1089 22.119H4.89114C4.45197 22.119 4.09601 21.763 4.09601 21.3238V18.9526H22.9041V21.3238C22.9041 21.763 22.5481 22.119 22.1089 22.119Z" fill="#FFC02E"/>
<path d="M13.5002 22.119H22.1089C22.5481 22.119 22.9041 21.763 22.9041 21.3238V18.9526H13.5002V22.119Z" fill="#FFA73B"/>
</g>
<defs>
<clipPath id="clip0">
<rect width="27" height="27" fill="white"/>
</clipPath>
</defs>
</svg>
