<svg xmlns="http://www.w3.org/2000/svg" width="71.325" height="73.181" viewBox="0 0 71.325 73.181"><defs><style>.a{fill:#42c2e0;stroke:#42c2e0;stroke-width:0.5px;}</style></defs><g transform="translate(-932.75 -646.179)"><g transform="translate(933 646.429)"><path class="a" d="M156.1,335.82h-38.37a.6.6,0,0,1-.33-.1,35.417,35.417,0,1,1,39.03,0A.6.6,0,0,1,156.1,335.82Zm-38.19-1.2h38.01a34.214,34.214,0,1,0-38.01,0Z" transform="translate(-101.512 -270.752)"/><g transform="translate(13.386 36.507)"><path class="a" d="M159.538,333.226H116.679a.6.6,0,0,1-.6-.6V316.877a.6.6,0,0,1,.379-.555l14.732-5.792a.593.593,0,0,1,.632.125l6.053,5.826,6.522-5.84a.6.6,0,0,1,.616-.111l14.74,5.792a.6.6,0,0,1,.379.556v15.752A.6.6,0,0,1,159.538,333.226Zm-42.262-1.2h41.665V317.285l-14.018-5.508-6.662,5.964a.6.6,0,0,1-.812-.015l-6.176-5.944-14,5.5Z" transform="translate(-116.082 -310.488)"/></g><g transform="translate(20.615 48.139)"><path class="a" d="M152.948,334.231h-28.4a.6.6,0,0,1-.6-.6v-9.886a.6.6,0,1,1,1.194,0v9.288h27.206v-9.288a.6.6,0,1,1,1.194,0v9.886A.6.6,0,0,1,152.948,334.231Z" transform="translate(-123.951 -323.149)"/></g><g transform="translate(27.726 36.507)"><path class="a" d="M146.46,319.245H132.287a.6.6,0,0,1-.6-.6v-7.562a.6.6,0,1,1,1.194,0v6.965h12.978v-6.965a.6.6,0,1,1,1.194,0v7.562A.6.6,0,0,1,146.46,319.245Z" transform="translate(-131.69 -310.488)"/></g><g transform="translate(32.68 44.07)"><path class="a" d="M141.942,324.853H137.68a.6.6,0,0,1-.6-.6v-4.939a.6.6,0,0,1,.6-.6h4.262a.6.6,0,0,1,.6.6v4.939A.6.6,0,0,1,141.942,324.853Zm-3.665-1.194h3.068v-3.745h-3.068Z" transform="translate(-137.083 -318.72)"/></g><g transform="translate(30.508 49.009)"><path class="a" d="M143.487,334.332h-8.171a.6.6,0,0,1-.581-.737l2.172-9.04a.6.6,0,0,1,.581-.458h4.262a.6.6,0,0,1,.586.484l1.737,9.041a.6.6,0,0,1-.586.71Zm-7.413-1.2h6.691l-1.509-7.846h-3.3Z" transform="translate(-134.719 -324.096)"/></g><g transform="translate(24.383 11.59)"><path class="a" d="M139.27,305.8a11.218,11.218,0,1,1,11.218-11.228A11.235,11.235,0,0,1,139.27,305.8Zm0-21.241a10.023,10.023,0,1,0,10.023,10.013A10.03,10.03,0,0,0,139.27,284.562Z" transform="translate(-128.052 -283.367)"/></g><g transform="translate(36.099 17.598)"><path class="a" d="M148.361,293.274a12.2,12.2,0,0,1-7.324-2.3.6.6,0,1,1,.728-.947A11.582,11.582,0,0,0,150.5,291.9a.6.6,0,0,1,.69.487.6.6,0,0,1-.486.691A13.847,13.847,0,0,1,148.361,293.274Z" transform="translate(-140.804 -289.906)"/></g><g transform="translate(24.952 12.786)"><path class="a" d="M133.721,292.646a13.155,13.155,0,0,1-4.664-.831.6.6,0,0,1,.422-1.118,11.971,11.971,0,0,0,4.243.755c4.9,0,8.9-2.775,8.9-6.186a.6.6,0,1,1,1.193,0C143.81,289.336,139.284,292.646,133.721,292.646Z" transform="translate(-128.671 -284.669)"/></g><g transform="translate(3.083 67.976)"><path class="a" d="M168.921,345.936H105.465a.6.6,0,0,1,0-1.2h63.456a.6.6,0,0,1,0,1.2Z" transform="translate(-104.868 -344.741)"/></g><g transform="translate(3.083 71.486)"><path class="a" d="M168.921,349.756H105.465a.6.6,0,0,1,0-1.2h63.456a.6.6,0,0,1,0,1.2Z" transform="translate(-104.868 -348.561)"/></g><path class="a" d="M160.46,291.085h-1.319l-.017,13.385a.656.656,0,0,0,.661.661l1.285.009-3.2,2.573-3.2-2.573h1.287a.671.671,0,0,0,.669-.67v-9.952H155.3v9.292h-2.506a.645.645,0,0,0-.518.252.66.66,0,0,0,.1.926l5.072,4.086a.676.676,0,0,0,.843.01l5.048-4.062a.687.687,0,0,0,.284-.552.657.657,0,0,0-.66-.66h-2.516Zm-40.208,18.14h-1.32l-.017-13.386a.656.656,0,0,1,.659-.661l1.3-.007-3.209-2.574-3.2,2.574h1.287a.67.67,0,0,1,.669.669v9.952h-1.329V296.5H112.58a.649.649,0,0,1-.517-.252.664.664,0,0,1,.1-.929l5.072-4.085a.667.667,0,0,1,.843-.009l5.048,4.061a.69.69,0,0,1,.283.553.662.662,0,0,1-.661.661h-2.515Z" transform="translate(-102.358 -272.404)"/></g></g></svg>