<svg width="24" height="16" viewBox="0 0 24 16" fill="none" xmlns="http://www.w3.org/2000/svg">
<path d="M24 4.35858C24 3.09937 22.9755 2.07489 21.7163 2.07489C20.4571 2.07489 19.4328 3.09937 19.4328 4.35858C19.4328 4.96393 19.6699 5.51471 20.0559 5.92377C19.3694 6.69171 18.3726 7.17639 17.2641 7.17639C15.4697 7.17639 13.9667 5.90784 13.6031 4.2207C14.0229 3.80634 14.2837 3.2312 14.2837 2.59619C14.2837 1.33698 13.2592 0.3125 12 0.3125C10.7408 0.3125 9.71631 1.33698 9.71631 2.59619C9.71631 3.2312 9.97723 3.80634 10.3969 4.2207C10.0333 5.90784 8.53033 7.17639 6.7359 7.17639C5.62738 7.17639 4.63055 6.69171 3.94409 5.92377C4.33008 5.51471 4.56738 4.96393 4.56738 4.35858C4.56738 3.09937 3.54291 2.07489 2.28369 2.07489C1.02448 2.07489 0 3.09937 0 4.35858C0 5.44989 0.769592 6.36432 1.79443 6.58881C2.03741 8.59418 2.55212 11.1247 3.64087 12.8461V14.9545C3.64087 15.3449 3.95728 15.6615 4.34766 15.6615H19.6523C20.0427 15.6615 20.3591 15.3449 20.3591 14.9545V12.8461C21.4479 11.1247 21.9626 8.59436 22.2056 6.58881C23.2304 6.36414 24 5.44989 24 4.35858ZM20.8464 4.35858C20.8464 3.87885 21.2366 3.48846 21.7163 3.48846C22.196 3.48846 22.5864 3.87885 22.5864 4.35858C22.5864 4.83832 22.196 5.22852 21.7163 5.22852C21.2366 5.22852 20.8464 4.83832 20.8464 4.35858ZM11.1299 2.59619C11.1299 2.11646 11.5203 1.72607 12 1.72607C12.4797 1.72607 12.8699 2.11646 12.8699 2.59619C12.8699 3.07593 12.4797 3.46613 12 3.46613C11.5203 3.46613 11.1299 3.07593 11.1299 2.59619ZM1.41357 4.35858C1.41357 3.87885 1.80396 3.48846 2.28369 3.48846C2.76343 3.48846 3.15363 3.87885 3.15363 4.35858C3.15363 4.83832 2.76343 5.22852 2.28369 5.22852C1.80396 5.22852 1.41357 4.83832 1.41357 4.35858ZM5.05444 14.2477V13.3427H18.9456V14.2477H5.05444ZM19.264 11.9289H4.73621C3.99225 10.6669 3.56506 8.8941 3.32007 7.29413C4.23065 8.10016 5.42706 8.58997 6.7359 8.58997C9.08551 8.58997 11.0729 7.01105 11.6938 4.85864C11.794 4.87219 11.8962 4.8797 12 4.8797C12.1038 4.8797 12.206 4.87219 12.3062 4.85864C12.9271 7.01105 14.9145 8.58997 17.2641 8.58997C18.5733 8.58997 19.7704 8.09979 20.681 7.29303C20.4362 8.89282 20.009 10.6655 19.264 11.9289Z" fill="white"/>
</svg>
