<svg xmlns="http://www.w3.org/2000/svg" width="55.287" height="61.606" viewBox="0 0 55.287 61.606"><defs><style>.a{fill:#42c2e0;stroke:#42c2e0;stroke-width:0.5px;}</style></defs><g transform="translate(-666.75 -657.754)"><g transform="translate(667 658.004)"><g transform="translate(0 2.517)"><path class="a" d="M536.007,202.6H495.118a.5.5,0,0,1-.5-.5V144.513a.5.5,0,0,1,.5-.5h40.889a.5.5,0,0,1,.5.5V202.1A.5.5,0,0,1,536.007,202.6Zm-40.387-1H535.5v-56.58H495.62Z" transform="translate(-494.615 -144.011)"/></g><g transform="translate(44.493 17.321)"><path class="a" d="M557.293,206.106a.5.5,0,0,1-.452-.283l-4.573-9.418a.5.5,0,0,1-.05-.219V163.679a.5.5,0,0,1,.5-.5h9.145a.5.5,0,0,1,.5.5v32.506a.5.5,0,0,1-.05.219l-4.571,9.418A.5.5,0,0,1,557.293,206.106Zm-4.071-10.035,4.071,8.384,4.069-8.384V164.181h-8.14Z" transform="translate(-552.217 -163.177)"/></g><g transform="translate(47.764 56.428)"><path class="a" d="M558.256,217.628a.5.5,0,0,1-.452-.282l-1.3-2.682a.5.5,0,0,1,.34-.709,6.752,6.752,0,0,1,2.826,0,.5.5,0,0,1,.341.709l-1.3,2.681a.5.5,0,0,1-.452.283Zm-.555-2.794.555,1.142.554-1.142A6.18,6.18,0,0,0,557.7,214.834Z" transform="translate(-556.452 -213.805)"/></g><g transform="translate(44.493 48.518)"><path class="a" d="M561.971,205.893a.5.5,0,0,1-.255-.07l-1.473-.873-.935.807a.5.5,0,0,1-.621.028l-1.472-1.061-1.013,1.014a.5.5,0,0,1-.355.148h0a.5.5,0,0,1-.355-.148l-1.006-1.013-1.471,1.06a.5.5,0,0,1-.587-.815l1.82-1.309a.5.5,0,0,1,.65.053l.952.959.96-.96a.5.5,0,0,1,.649-.052l1.5,1.078.908-.785a.5.5,0,0,1,.584-.051l1.783,1.057a.5.5,0,0,1-.256.934Z" transform="translate(-552.217 -203.566)"/></g><g transform="translate(46.541 17.321)"><path class="a" d="M555.371,195.514a.5.5,0,0,1-.5-.5V163.679a.5.5,0,0,1,1,0v31.334A.5.5,0,0,1,555.371,195.514Z" transform="translate(-554.869 -163.177)"/></g><g transform="translate(48.756 17.321)"><path class="a" d="M558.382,195.666a.5.5,0,0,1-.5-.5l-.144-31.484a.5.5,0,0,1,.5-.5h0a.5.5,0,0,1,.5.5l.144,31.484a.5.5,0,0,1-.5.5Z" transform="translate(-557.736 -163.177)"/></g><g transform="translate(51.288 17.321)"><path class="a" d="M561.516,196.033a.5.5,0,0,1-.5-.5V163.679a.5.5,0,0,1,1,0v31.853A.5.5,0,0,1,561.516,196.033Z" transform="translate(-561.014 -163.177)"/></g><g transform="translate(44.493 12.577)"><path class="a" d="M561.864,162.783h-9.145a.5.5,0,0,1-.5-.5V159.91a2.879,2.879,0,0,1,2.875-2.875h4.4a2.879,2.879,0,0,1,2.875,2.875v2.371A.5.5,0,0,1,561.864,162.783Zm-8.642-1h8.14V159.91a1.873,1.873,0,0,0-1.871-1.872h-4.4a1.872,1.872,0,0,0-1.87,1.872Z" transform="translate(-552.217 -157.035)"/></g><g transform="translate(6.875 11.202)"><path class="a" d="M531.161,162.81H504.017a.5.5,0,0,1-.5-.5v-6.551a.5.5,0,0,1,.5-.5h27.143a.5.5,0,0,1,.5.5v6.551A.5.5,0,0,1,531.161,162.81Zm-26.641-1h26.139v-5.547H504.519Z" transform="translate(-503.515 -155.255)"/></g><g transform="translate(7.378 22.066)"><path class="a" d="M530.8,170.324H504.669a.5.5,0,1,1,0-1H530.8a.5.5,0,1,1,0,1Z" transform="translate(-504.167 -169.32)"/></g><g transform="translate(7.378 26.173)"><path class="a" d="M530.8,175.64H504.669a.5.5,0,0,1,0-1H530.8a.5.5,0,1,1,0,1Z" transform="translate(-504.167 -174.636)"/></g><g transform="translate(15.523 30.278)"><path class="a" d="M533.2,180.955h-17.99a.5.5,0,0,1,0-1H533.2a.5.5,0,1,1,0,1Z" transform="translate(-514.712 -179.951)"/></g><g transform="translate(7.378 34.376)"><path class="a" d="M524.262,186.261H504.669a.5.5,0,1,1,0-1h19.593a.5.5,0,1,1,0,1Z" transform="translate(-504.167 -185.257)"/></g><g transform="translate(7.378 38.482)"><path class="a" d="M530.8,191.576H504.669a.5.5,0,0,1,0-1H530.8a.5.5,0,1,1,0,1Z" transform="translate(-504.167 -190.572)"/></g><g transform="translate(12.864 42.587)"><path class="a" d="M532.421,196.891h-20.65a.5.5,0,0,1,0-1h20.65a.5.5,0,1,1,0,1Z" transform="translate(-511.269 -195.887)"/></g><g transform="translate(7.378 46.685)"><path class="a" d="M530.8,202.2H504.669a.5.5,0,0,1,0-1H530.8a.5.5,0,1,1,0,1Z" transform="translate(-504.167 -201.192)"/></g><g transform="translate(4.242)"><path class="a" d="M533.009,146.79a.5.5,0,0,1-.5-.5v-5.034a.5.5,0,0,1,1,0v5.034A.5.5,0,0,1,533.009,146.79Zm-5.4,0a.5.5,0,0,1-.5-.5v-5.034a.5.5,0,0,1,1,0v5.034A.5.5,0,0,1,527.607,146.79Zm-5.4,0a.5.5,0,0,1-.5-.5v-5.034a.5.5,0,0,1,1,0v5.034A.5.5,0,0,1,522.209,146.79Zm-5.4,0a.5.5,0,0,1-.5-.5v-5.034a.5.5,0,0,1,1,0v5.034A.5.5,0,0,1,516.809,146.79Zm-5.4,0a.5.5,0,0,1-.5-.5v-5.034a.5.5,0,0,1,1,0v5.034A.5.5,0,0,1,511.41,146.79Zm-5.4,0a.5.5,0,0,1-.5-.5v-5.034a.5.5,0,0,1,1,0v5.034A.5.5,0,0,1,506.011,146.79Zm-5.4,0a.5.5,0,0,1-.5-.5v-5.034a.5.5,0,0,1,1,0v5.034A.5.5,0,0,1,500.61,146.79Z" transform="translate(-500.107 -140.752)"/></g></g></g></svg>