<svg xmlns="http://www.w3.org/2000/svg" width="81.873" height="79.61" viewBox="0 0 81.873 79.61"><defs><style>.a{fill:#42c2e0;stroke:#42c2e0;stroke-width:0.5px;}</style></defs><g transform="translate(-1202.501 -405.75)"><g transform="translate(1202.751 406)"><g transform="translate(5.853 12.434)"><path class="a" d="M435.2,325.3H366.862a.669.669,0,0,1-.67-.669V284.609a.668.668,0,0,1,.67-.669H435.2a.668.668,0,0,1,.67.669v40.019A.669.669,0,0,1,435.2,325.3Zm-67.668-1.337h67V285.277h-67Z" transform="translate(-366.192 -283.94)"/></g><g transform="translate(0 6.674)"><path class="a" d="M441.206,285.437H361.171a.669.669,0,0,1-.669-.669v-5.76a.669.669,0,0,1,.669-.669h80.036a.669.669,0,0,1,.669.669v5.76A.669.669,0,0,1,441.206,285.437ZM361.84,284.1h78.7v-4.422h-78.7Z" transform="translate(-360.502 -278.34)"/></g><g transform="translate(53.328 21.946)"><path class="a" d="M417.814,318.895h-4.8a.669.669,0,0,1-.669-.67V293.857a.669.669,0,0,1,.669-.669h4.8a.669.669,0,0,1,.669.669v24.369A.669.669,0,0,1,417.814,318.895Zm-4.13-1.338h3.461V294.525h-3.461Z" transform="translate(-412.347 -293.188)"/></g><g transform="translate(45.475 24.962)"><path class="a" d="M410.178,318.811h-4.8a.669.669,0,0,1-.669-.67V296.789a.669.669,0,0,1,.669-.669h4.8a.669.669,0,0,1,.67.669v21.353A.669.669,0,0,1,410.178,318.811Zm-4.128-1.338h3.459V297.458H406.05Z" transform="translate(-404.712 -296.12)"/></g><g transform="translate(37.624 27.904)"><path class="a" d="M402.546,318.729h-4.8a.669.669,0,0,1-.669-.67V299.649a.668.668,0,0,1,.669-.669h4.8a.668.668,0,0,1,.67.669V318.06A.669.669,0,0,1,402.546,318.729Zm-4.128-1.338h3.459V300.317h-3.459Z" transform="translate(-397.08 -298.98)"/></g><g transform="translate(29.77 31.995)"><path class="a" d="M394.912,318.615h-4.8a.669.669,0,0,1-.67-.67v-14.32a.669.669,0,0,1,.67-.669h4.8a.669.669,0,0,1,.669.669v14.32A.669.669,0,0,1,394.912,318.615Zm-4.13-1.338h3.46V304.3h-3.46Z" transform="translate(-389.444 -302.957)"/></g><g transform="translate(21.918 36.256)"><path class="a" d="M387.276,318.5h-4.8a.669.669,0,0,1-.669-.67V307.769a.668.668,0,0,1,.669-.669h4.8a.669.669,0,0,1,.669.669v10.059A.669.669,0,0,1,387.276,318.5Zm-4.129-1.338h3.46v-8.722h-3.46Z" transform="translate(-381.81 -307.1)"/></g><g transform="translate(18.656 49.286)"><path class="a" d="M422.04,321.1H379.308a.669.669,0,1,1,0-1.337H422.04a.669.669,0,0,1,0,1.337Z" transform="translate(-378.639 -319.767)"/></g><g transform="translate(21.928 16.111)"><path class="a" d="M382.49,304.746a.669.669,0,0,1-.226-1.3c.179-.066,18.055-6.573,25.9-15.7a.669.669,0,1,1,1.014.872c-8.071,9.4-25.71,15.818-26.458,16.085A.64.64,0,0,1,382.49,304.746Z" transform="translate(-381.82 -287.515)"/></g><g transform="translate(44.232 16.223)"><path class="a" d="M407.952,292.94a.669.669,0,0,1-.669-.669v-3.306l-3.107.015h0a.669.669,0,0,1,0-1.337l3.779-.02a.671.671,0,0,1,.672.669v3.979A.669.669,0,0,1,407.952,292.94Z" transform="translate(-403.504 -287.624)"/></g><g transform="translate(37.426)"><path class="a" d="M402.75,279.864h-5.194a.669.669,0,0,1-.669-.67v-4.071a3.266,3.266,0,1,1,6.532,0v4.071A.669.669,0,0,1,402.75,279.864Zm-4.526-1.338h3.856v-3.4a1.928,1.928,0,1,0-3.856,0Z" transform="translate(-396.887 -271.852)"/></g><g transform="translate(8.475 58.041)"><path class="a" d="M432.5,349.348a.669.669,0,0,1-.669-.67V345.6a4.358,4.358,0,0,0-4.353-4.355h-7.251a4.36,4.36,0,0,0-4.356,4.355v3.082a.669.669,0,1,1-1.337,0V345.6a5.7,5.7,0,0,1,5.693-5.693h7.251a5.7,5.7,0,0,1,5.691,5.693v3.082A.669.669,0,0,1,432.5,349.348Zm-23.784,0a.669.669,0,0,1-.669-.67V345.6a4.358,4.358,0,0,0-4.353-4.355h-7.251a4.36,4.36,0,0,0-4.356,4.355v3.082a.669.669,0,1,1-1.337,0V345.6a5.7,5.7,0,0,1,5.693-5.693H403.7a5.7,5.7,0,0,1,5.691,5.693v3.082A.669.669,0,0,1,408.719,349.348Zm-22.011,0a.669.669,0,0,1-.669-.67V345.6a4.359,4.359,0,0,0-4.354-4.355h-7.253a4.359,4.359,0,0,0-4.353,4.355v3.082a.669.669,0,1,1-1.338,0V345.6a5.7,5.7,0,0,1,5.691-5.693h7.253a5.7,5.7,0,0,1,5.691,5.693v3.082A.669.669,0,0,1,386.708,349.348Zm37.021-10.313a5.378,5.378,0,1,1,5.384-5.372A5.383,5.383,0,0,1,423.728,339.035ZM419.7,334a4.046,4.046,0,0,0,8.077-.342,3.917,3.917,0,0,0-.026-.455,5.308,5.308,0,0,1-3.3-.8A5.345,5.345,0,0,1,419.7,334Zm.11-1.339a4.02,4.02,0,0,0,3.989-1.553.666.666,0,0,1,.451-.263.659.659,0,0,1,.5.143,4.225,4.225,0,0,0,2.615.9,4.045,4.045,0,0,0-7.557.773Zm-19.863,6.37a5.378,5.378,0,1,1,5.182-6.83.588.588,0,0,1,.035.118c0,.014.006.028.008.043a5.373,5.373,0,0,1-5.225,6.668ZM395.913,334a4.046,4.046,0,0,0,8.077-.34,3.88,3.88,0,0,0-.026-.454,5.329,5.329,0,0,1-3.293-.8A5.388,5.388,0,0,1,395.913,334Zm.111-1.339a4.035,4.035,0,0,0,4-1.552.668.668,0,0,1,.955-.12,4.025,4.025,0,0,0,2.6.9,4.045,4.045,0,0,0-7.557.772Zm-18.091,6.371a5.378,5.378,0,1,1,5.383-5.372A5.384,5.384,0,0,1,377.933,339.035ZM373.9,334a4.045,4.045,0,0,0,8.076-.34,3.918,3.918,0,0,0-.025-.455,5.306,5.306,0,0,1-3.3-.8A5.323,5.323,0,0,1,373.9,334Zm.109-1.338A4,4,0,0,0,378,331.112a.671.671,0,0,1,.452-.263.66.66,0,0,1,.5.143,4.217,4.217,0,0,0,2.615.9,4.046,4.046,0,0,0-7.558.773Z" transform="translate(-368.741 -328.279)"/></g></g></g></svg>