<svg xmlns="http://www.w3.org/2000/svg" width="23.398" height="19.817" viewBox="0 0 23.398 19.817"><defs><style>.a{fill:#fff;stroke:#fff;stroke-width:0.7px;}</style></defs><g transform="translate(-27.65 -203.149)"><path class="a" d="M19.418,4.479a.3.3,0,0,0,.3-.3V3.186a.98.98,0,0,0-.978-.978h-1.6l-.366-1.081a.3.3,0,0,0-.37-.19L7.7,3.58a.3.3,0,0,0,.087.584.317.317,0,0,0,.087-.013l8.416-2.559.8,2.368a.3.3,0,0,0,.566-.192L17.336,2.8h1.4a.381.381,0,0,1,.381.381v1A.3.3,0,0,0,19.418,4.479ZM21.8,8.959a.3.3,0,1,0,0,.6c.21,0,.3.089.3.3v3.584c0,.21-.089.3-.3.3H17.023c-.21,0-.3-.089-.3-.3V10.452c0-.21.089-.3.3-.3h3.584a.3.3,0,0,0,.3-.3V6.271a.84.84,0,0,0-.9-.9H1.792A1.109,1.109,0,0,1,.6,4.181,1.109,1.109,0,0,1,1.792,2.986H4.824l-1.807.6a.3.3,0,0,0,.093.582A.3.3,0,0,0,3.2,4.149L14.026.581a.3.3,0,1,0-.188-.567L6.611,2.4a.233.233,0,0,0-.041-.008H1.792A1.7,1.7,0,0,0,0,4.181V17.321a1.7,1.7,0,0,0,1.792,1.792H20.01a.84.84,0,0,0,.9-.9V15.231a.3.3,0,1,0-.6,0v2.987c0,.21-.089.3-.3.3H1.792A1.109,1.109,0,0,1,.6,17.321V5.562a1.815,1.815,0,0,0,1.195.411H20.01c.21,0,.3.089.3.3V9.556H17.023a.84.84,0,0,0-.9.9v2.987a.84.84,0,0,0,.9.9H21.8a.84.84,0,0,0,.9-.9V9.855A.84.84,0,0,0,21.8,8.959Zm-3.285,2.987a.6.6,0,1,0,.6-.6A.6.6,0,0,0,18.517,11.946Z" transform="translate(28 203.502)"/></g></svg>