<svg width="352" height="363" viewBox="0 0 352 363" fill="none" xmlns="http://www.w3.org/2000/svg">
<path d="M123.284 321.128C131.074 315.665 140.188 277.556 140.736 254.86C141.013 243.236 144.458 238.391 147.495 234.119C150.398 230.031 152.92 226.507 151.445 218.418C148.651 202.934 155.996 196.253 156.067 196.188L155.22 195.225C154.889 195.506 147.246 202.398 150.175 218.646C151.542 226.225 149.291 229.376 146.443 233.388C143.454 237.589 139.732 242.825 139.445 254.844C138.865 279.207 129.539 315.178 122.541 320.088L123.284 321.128Z" fill="url(#paint0_linear)"/>
<path d="M106.95 310.018C106.218 308.351 105.458 306.634 104.596 304.815C100.142 295.444 96.2037 293.895 89.6723 291.34C88.0774 290.712 86.2655 290.008 84.28 289.115C74.9222 284.919 76.7341 278.736 78.3127 273.279C78.5351 272.515 78.7575 271.757 78.9528 270.999C79.7774 267.794 78.1933 266.181 75.801 263.744C74.0217 261.936 71.8083 259.678 70.1049 256.121C68.2334 252.223 69.1881 250.134 70.3165 249.083C72.6872 246.842 78.1608 247.253 83.3361 250.069C84.9635 250.946 86.2655 252.326 87.6759 253.788C90.9688 257.231 95.0699 261.514 105.437 261.563C111.35 261.59 114.588 262.402 116.286 264.27C118.191 266.403 117.832 269.597 117.333 274.015C117.16 275.547 116.965 277.263 116.851 279.153C116.145 290.327 122.753 298.389 122.818 298.47C126.745 303.186 131.612 312.931 129.512 318.886C128.633 321.398 126.664 322.979 123.659 323.586C122.576 323.815 121.473 323.935 120.366 323.943C113.113 323.954 110.46 317.955 106.95 310.018ZM82.7339 251.211C78.1174 248.693 73.17 248.19 71.2225 250.031C69.7415 251.428 70.4413 253.821 71.2876 255.591C72.915 258.958 74.9439 261.037 76.7449 262.873C79.2458 265.423 81.2258 267.437 80.2222 271.346C80.0269 272.115 79.7991 272.889 79.5712 273.668C77.9818 279.082 76.4737 284.231 84.8062 287.967C86.7646 288.849 88.5602 289.548 90.1442 290.17C96.7354 292.753 101.091 294.458 105.762 304.296C106.63 306.125 107.39 307.853 108.133 309.525C112.164 318.643 114.594 324.143 123.404 322.368C125.932 321.826 127.575 320.554 128.286 318.502C130.136 313.218 125.709 303.971 121.776 299.325C117.36 293.527 115.152 286.35 115.549 279.077C115.668 277.171 115.863 275.422 116.037 273.879C116.498 269.786 116.829 266.841 115.305 265.125C113.916 263.566 110.872 262.857 105.437 262.829C94.522 262.781 90.2093 258.276 86.7483 254.66C85.365 253.209 84.1661 251.953 82.7393 251.184L82.7339 251.211Z" fill="url(#paint1_linear)"/>
<path d="M123.523 331.377L124.809 331.312C124.744 330.104 123.122 301.67 111.681 293.343C99.1277 284.215 95.173 274.394 93.2906 267.816C91.0664 260.052 79.7665 257.979 79.2837 257.897L79.0613 259.164C79.1698 259.164 90.0519 261.184 92.0483 268.168C93.9849 274.935 98.0481 285.022 110.921 294.383C121.874 302.352 123.507 331.09 123.523 331.377Z" fill="url(#paint2_linear)"/>
<path d="M121.342 337.776C118.63 336.434 118.749 331.057 118.896 322.915C119.086 312.628 119.341 298.552 113.943 285.558C108.209 271.79 113.325 267.767 118.283 263.875C123.822 259.516 129.056 255.402 119.015 236.805C114.404 228.272 112.939 222.495 114.409 218.64C115.88 214.786 119.927 213.335 124.239 211.765C131.677 209.058 140.107 205.966 139.016 190.255C138.686 185.436 139.25 182.475 140.807 180.932C142.488 179.253 144.978 179.437 147.859 179.649C152.199 179.963 157.13 180.325 161.421 174.738C161.866 173.341 165.967 160.884 170.871 158.75C171.339 158.526 171.852 158.409 172.371 158.409C172.89 158.409 173.403 158.526 173.871 158.75C177.261 160.375 179.225 162.286 179.882 164.614C181.026 168.663 178.053 173.228 174.614 178.517C169.189 186.822 163.075 196.243 169.433 207.45C177.836 222.268 173.399 227.454 167.263 234.633C163.743 238.743 159.756 243.404 157.086 251.006C154.944 257.118 158.6 262.949 162.142 268.585C166.58 275.656 171.169 282.97 161.508 289.315C145.526 299.808 129.751 334.051 129.594 334.392L129.528 334.539L129.404 334.631C126.458 336.937 124.315 338.036 122.704 338.036C122.236 338.057 121.77 337.968 121.342 337.776ZM160.765 288.276C169.374 282.623 165.5 276.451 161.014 269.327C157.488 263.707 153.49 257.335 155.839 250.637C158.589 242.814 162.658 238.055 166.254 233.854C172.271 226.816 176.247 222.176 168.289 208.143C161.546 196.232 168.18 186.064 173.507 177.873C176.762 172.849 179.605 168.506 178.618 165.02C178.075 163.071 176.328 161.42 173.296 159.969C172.995 159.823 172.665 159.747 172.33 159.747C171.996 159.747 171.666 159.823 171.365 159.969C166.813 161.945 162.636 175.128 162.593 175.269L162.56 175.377L162.49 175.464C157.765 181.7 152.21 181.294 147.74 180.97C145.076 180.769 142.966 180.618 141.696 181.879C140.427 183.141 139.987 185.848 140.286 190.201C141.441 206.881 132.149 210.276 124.662 213.01C120.464 214.542 116.834 215.868 115.598 219.133C114.268 222.62 115.711 228.05 120.133 236.236C130.684 255.77 124.776 260.415 119.048 264.93C114.274 268.688 109.76 272.239 115.115 285.108C120.615 298.319 120.361 312.568 120.171 322.969C120.04 330.072 119.937 335.681 121.901 336.655C123.051 337.197 125.248 336.26 128.411 333.786C129.729 330.982 144.843 298.73 160.765 288.276Z" fill="url(#paint3_linear)"/>
<path d="M96.1279 188.517C104.265 185.734 102.567 201.375 106.001 212.95C109.435 224.525 144.23 217.996 129.626 246.977C115.023 275.959 148.07 256.668 138.214 281.957C128.357 307.246 137.356 334.295 126.621 327.435C115.885 320.576 120.588 288.709 109.419 284.924C98.249 281.14 96.4317 276.727 107.487 266.441C118.543 256.154 78.5189 245.943 88.3921 225.17C98.2652 204.396 86.7321 191.733 96.1279 188.517Z" fill="url(#paint4_linear)"/>
<path d="M122.877 325.752C123.897 321.42 132.642 283.322 124.505 278.72C117.322 274.659 117.501 258.872 118.619 243.962C119.612 230.768 102.627 224.601 101.905 224.341L101.477 225.554C101.645 225.614 118.256 231.656 117.333 243.87C116.183 259.181 116.058 275.423 123.87 279.841C130.054 283.333 124.358 313.949 121.641 325.459L122.877 325.752Z" fill="white"/>
<path d="M153.555 312.184L141.946 356.146H115.999L104.39 312.184H153.555Z" fill="#655DC6"/>
<path d="M334.452 13.9396L98.8286 15.1709L99.6959 180.481L335.319 179.249L334.452 13.9396Z" fill="#DFE1E8"/>
<path d="M245.767 12.0337L188.308 12.334L188.376 25.2842L245.835 24.9839L245.767 12.0337Z" fill="#706865"/>
<path d="M159.663 47.2104C159.663 47.2104 159.728 84.7838 155.638 99.8457L146.79 105.438L115.473 105.601C121.342 89.7702 121.261 47.4054 121.261 47.4054L159.663 47.2104Z" fill="#C1F2F6"/>
<path d="M146.785 105.438L146.758 99.7591L155.638 99.7158L146.785 105.438Z" fill="#9EE0E6"/>
<path d="M197.528 37.958C197.528 37.958 197.572 63.9454 194.745 74.3674L188.621 78.2384L166.954 78.3521C171.017 67.3995 170.958 38.0934 170.958 38.0934L197.528 37.958Z" fill="white"/>
<path d="M188.621 78.2384L188.599 74.3132L194.745 74.2808L188.621 78.2384Z" fill="#C9C9C9"/>
<path d="M272.76 51.3359C272.76 51.3359 272.76 70.5016 270.405 78.1895L265.274 81.0427L247.09 81.1348C250.502 73.057 250.469 51.4496 250.469 51.4496L272.76 51.3359Z" fill="#C1F2F6"/>
<path d="M265.263 81.0427L265.247 78.1462L270.4 78.1191L265.263 81.0427Z" fill="#9EE0E6"/>
<path d="M315.464 35.8193C315.464 35.8193 315.496 60.3341 312.453 70.1605L305.878 73.815L282.622 73.9341C286.962 63.6041 286.962 35.9655 286.962 35.9655L315.464 35.8193Z" fill="#3CB1E5"/>
<path d="M305.878 73.8148L305.857 70.1116L312.453 70.0791L305.878 73.8148Z" fill="#407199"/>
<path d="M196.161 94.5127C196.161 94.5127 196.161 113.684 193.807 121.366L188.664 124.225L170.48 124.317C173.892 116.239 173.865 94.6264 173.865 94.6264L196.161 94.5127Z" fill="white"/>
<path d="M188.664 124.225L188.648 121.328L193.807 121.301L188.664 124.225Z" fill="#C9C9C9"/>
<path d="M280.208 93.0454C280.208 93.0454 280.241 117.777 277.17 127.695L270.536 131.382L247.079 131.501C251.484 121.079 251.418 93.197 251.418 93.197L280.208 93.0454Z" fill="#C1F2F6"/>
<path d="M270.536 131.377L270.519 127.636L277.17 127.604L270.536 131.377Z" fill="#9EE0E6"/>
<path d="M236.858 58.1523H206.979V107.983H236.858V58.1523Z" fill="white"/>
<path d="M315.464 142.984H116.943V145.827H315.464V142.984Z" fill="white"/>
<path d="M247.079 162.697H116.943V165.54H247.079V162.697Z" fill="white"/>
<path d="M214.823 152.844H116.943V155.686H214.823V152.844Z" fill="white"/>
<path d="M59.8468 61.46C59.8468 61.46 71.7054 86.4078 63.541 87.9021C52.3388 89.9486 47.8091 69.2887 47.8091 69.2887L59.8468 61.46Z" fill="#252740"/>
<path d="M124.586 123.44C124.586 123.44 128.292 122.276 128.595 120.089C128.845 118.221 130.521 115.996 131.037 115.308C131.725 114.393 132.789 110.787 133.961 111.643C135.132 112.498 132.496 117.669 132.159 118.865C131.823 120.062 136.89 117.782 138.127 118.096C139.364 118.41 142.673 127.002 139.016 128.161C135.36 129.32 130.678 128.161 130.076 128.475C129.219 128.843 128.34 129.159 127.445 129.423L124.586 123.44Z" fill="#EEA886"/>
<path d="M137.248 118.167C137.248 118.167 148.689 115.362 149.611 115.817C150.533 116.272 150.642 116.9 149.584 117.198C148.526 117.495 138.609 120.224 138.609 120.224C138.609 120.224 152.714 119.179 153.544 119.385C154.032 119.504 154.325 120.706 153.777 120.922C153.229 121.139 139.309 122.974 139.309 122.974C139.309 122.974 152.475 122.021 153.121 122.4C153.264 122.508 153.371 122.656 153.431 122.825C153.49 122.993 153.498 123.176 153.454 123.349C153.41 123.522 153.316 123.679 153.183 123.799C153.051 123.919 152.886 123.998 152.709 124.025C151.737 124.16 139.57 125.735 139.57 125.735C139.57 125.735 149.193 125.643 149.551 126.277C149.768 126.672 150.094 127.695 147.588 127.647C145.081 127.598 139.228 128.08 139.228 128.08L137.248 118.167Z" fill="#EEA886"/>
<path d="M30.5526 339.243C30.5526 339.243 36.6935 348.344 39.1673 350.537C39.1673 350.537 44.668 352.551 45.2159 356.39C45.7638 360.228 45.677 362.794 39.1673 362.978C32.6575 363.163 28.3936 361.999 27.2055 358.063C26.4284 355.613 25.1335 353.359 23.4082 351.452V359.687H21.9435C21.9435 359.687 21.58 351.728 21.4878 350.266C21.3956 348.805 20.4354 343.174 23.5275 340.683C26.6197 338.193 30.5526 339.243 30.5526 339.243Z" fill="#3F446E"/>
<path d="M61.3005 331.972C62.126 333.79 63.1561 335.508 64.3709 337.094C65.8465 339.01 70.4196 346.882 72.4376 347.429C74.4556 347.976 80.6833 349.053 81.2367 352.551C81.79 356.048 82.0612 358.506 75.9203 358.772C69.7795 359.037 65.7488 359.41 62.814 355.112C59.8792 350.813 55.2193 347.705 55.2193 347.705V358.918H52.8161C52.8161 358.918 51.7311 347.245 51.0747 346.422C50.4183 345.599 48.78 336.634 54.4652 331.972C60.1504 327.311 61.3005 331.972 61.3005 331.972Z" fill="#3F446E"/>
<path d="M26.4297 163.591C26.4297 163.591 18.6776 173.65 16.5728 185.588C14.468 197.526 17.8151 237.562 17.7229 243.48C17.6306 249.398 12.1353 264.053 13.2311 275.174C14.3269 286.294 23.5383 340.684 23.5383 340.684L30.5905 339.243C30.5905 339.243 29.9016 282.856 30.5905 278.189C31.2795 273.522 32.6574 256.533 32.9341 254.606C33.2107 252.678 50.3857 202.247 50.3857 193.644C50.3857 185.041 45.1236 149.552 26.4297 163.591Z" fill="#EEA886"/>
<path d="M65.38 167.521C65.38 167.521 78.1175 216.02 79.631 222.766C81.1445 229.512 83.3307 235.034 83.3307 237.887C83.3307 244.508 80.8679 255.142 80.8679 255.142L61.3006 331.972L53.1634 333.244C53.1634 333.244 57.8558 286.034 58.0891 276.976C58.3224 267.919 65.3204 255.006 63.9479 251.162C62.5754 247.318 41.8255 203.026 41.8255 203.026C41.8255 203.026 26.1098 153.439 65.38 167.521Z" fill="#EEA886"/>
<path d="M39.1671 350.537C39.1671 350.537 32.8798 354.045 28.8329 349.541C26.5914 346.896 24.7975 343.905 23.522 340.683L30.5742 339.243L39.1671 350.537Z" fill="#EEA886"/>
<path d="M72.4269 347.429C72.4269 347.429 66.9261 348.799 64.8321 347.429C62.7382 346.06 55.5557 333.97 53.1851 333.245C53.1851 333.245 55.4852 328.589 61.3223 331.972C61.3006 331.972 70.87 345.415 72.4269 347.429Z" fill="#EEA886"/>
<path d="M83.3307 237.887C83.3307 237.887 53.8685 250.513 9.99805 250.513C9.99805 250.513 11.9239 193.47 18.3034 179.188C24.683 164.906 66.3944 171.327 66.3944 171.327C66.3944 171.327 83.3307 225.917 83.3307 237.887Z" fill="#3F446E"/>
<path d="M60.1178 85.0654C63.6362 85.5744 66.8827 87.244 69.34 89.8081C73.3056 94.0473 77.0324 100.815 78.0685 103.078C79.1047 105.341 93.6757 126.315 94.4352 126.786C95.1947 127.257 101.558 125.589 106.657 125.162C114.984 124.469 127.44 120.235 127.44 120.235L129.29 129.628C129.29 129.628 98.6557 139.493 91.5872 137.749C82.9454 135.622 63.0472 110.138 63.0472 110.138C63.0472 110.138 48.2104 92.8021 60.1178 85.0654Z" fill="#3CB1E5"/>
<path d="M50.9554 81.3894C50.9554 81.3894 57.7581 84.5945 60.1179 85.0655C62.4777 85.5365 71.6456 97.4203 73.2351 101.784C74.8246 106.148 73.2351 112.612 69.9259 120.268C66.6168 127.923 69.7415 130.451 68.228 138.091C66.7144 145.73 66.7145 166.552 67.002 170.797C67.2895 175.041 23.2779 182.995 14.4897 175.28C14.4897 175.28 20.457 155.708 27.4822 148.361C29.0066 146.769 28.8438 136.179 27.8022 133.537C26.7607 130.895 15.0485 111.188 15.0485 111.188C15.0485 111.188 14.186 91.1996 19.3016 87.2365C23.7391 83.7932 35.8418 82.5696 38.0172 81.8225C40.1925 81.0754 46.5124 80.7289 50.9554 81.3894Z" fill="#3CB1E5"/>
<path d="M54.1994 73.5553C54.1994 73.5553 52.8432 86.0076 53.1145 90.0681C53.1145 90.0681 46.0622 97.1063 38.0063 81.8117C38.0063 81.8117 41.3914 75.4989 38.8418 66.8906C36.2921 58.2823 54.1994 73.5553 54.1994 73.5553Z" fill="#EEA886"/>
<path d="M73.9891 123.056C73.9891 123.056 75.6871 111.762 73.8806 104.892C73.8806 104.892 73.8806 110.798 70.6257 119.19L73.9891 123.056Z" fill="#B8A9A3"/>
<path d="M60.3458 141.198L32.1097 190.005L0.72168 171.917L27.7318 122.406L60.3458 141.198Z" fill="#D44040"/>
<path d="M46.3497 173.612C45.7228 173.623 45.0983 173.533 44.4998 173.347C44.4998 173.347 43.5125 172.778 42.791 172.415C42.605 172.317 42.4129 172.23 42.216 172.156C41.1036 171.882 40.0416 171.434 39.0696 170.829C37.8219 169.963 33.4006 164.874 33.4006 164.874L35.4892 161.701L37.019 158.453C37.019 158.453 46.3008 159.048 47.5594 159.72C47.6787 159.79 47.7981 159.855 47.9066 159.931C48.9156 160.602 49.3821 161.522 49.8704 161.934C50.0494 162.091 51.7202 163.726 51.666 164.419C51.6619 164.805 51.5603 165.183 51.3707 165.519C51.181 165.855 50.9094 166.138 50.581 166.341C50.581 166.341 50.3423 168.225 49.4093 169.107C49.3435 169.627 49.1585 170.125 48.8687 170.561C48.5789 170.998 48.1921 171.362 47.7384 171.625C47.7384 171.625 47.3804 173.357 46.3497 173.612Z" fill="#EEA886"/>
<path d="M27.2109 85.0654C27.2109 85.0654 18.6397 82.6182 13.7249 92.0386C8.80997 101.459 8.84252 105.493 8.18069 110.1C7.55684 114.431 4.75763 126.315 4.47554 127.544C4.19345 128.773 -2.16986 143.391 0.759544 148.502C3.68894 153.612 33.3627 168.755 33.1728 169.887C32.983 171.019 38.3101 158.458 38.3101 158.458C38.3101 158.458 26.305 151.777 24.3358 149.72C21.1569 146.379 14.403 142.779 15.7863 138.632C17.4137 133.759 22.2961 117.338 23.4353 114.935C24.5745 112.531 34.4422 88.1297 27.2109 85.0654Z" fill="#3CB1E5"/>
<path d="M33.3138 50.1881C33.3138 50.1881 31.7569 48.3202 31.171 50.1881C30.5851 52.0559 32.4947 57.6811 32.7063 58.4715C32.7063 58.4715 33.6502 61.6117 34.0299 61.211C34.4096 60.8104 33.3138 50.1881 33.3138 50.1881Z" fill="#EEA987"/>
<path d="M60.5628 50.421C60.5628 50.421 62.1197 48.5531 62.7327 50.421C63.3457 52.2888 61.4091 57.9032 61.1975 58.7099C61.1975 58.7099 60.2536 61.85 59.8738 61.4494C59.4941 61.0487 60.5628 50.421 60.5628 50.421Z" fill="#EEA987"/>
<path d="M49.3659 32.2947C49.3659 32.2947 63.682 34.4928 61.5826 56.999C59.4832 79.5051 46.8542 77.7185 46.008 77.7022C45.1617 77.686 33.3356 78.1678 32.3103 50.7079C32.332 50.7079 31.8546 30.3998 49.3659 32.2947Z" fill="#EEA987"/>
<path d="M35.0769 49.3598C35.0769 49.3598 50.9933 54.0754 58.588 52.5703C58.588 52.5703 59.0762 55.3694 60.1666 55.5426C61.257 55.7159 61.8212 50.1881 61.8212 50.1881C61.8212 50.1881 62.1901 31.8887 45.601 31.7155C29.0119 31.5422 32.3644 51.5362 32.3644 51.5362L32.5923 54.9525C32.5923 54.9525 34.9684 55.8891 35.0769 49.3598Z" fill="#252740"/>
<path d="M40.3987 75.5527C40.3987 75.5527 45.4166 80.29 53.1253 75.9425C53.1253 75.9425 50.8469 79.7324 46.5233 79.6457C42.1997 79.5591 40.3987 75.5527 40.3987 75.5527Z" fill="#A77860"/>
<path d="M32.5869 82.8997C32.5869 82.8997 37.4692 97.236 50.798 96.1803C64.1268 95.1245 57.1288 84.0799 57.1288 84.0799C57.1288 84.0799 53.8034 82.1742 52.8649 81.9955C51.9264 81.8168 38.104 81.6382 38.104 81.6382L32.5869 82.8997Z" fill="#EEA886"/>
<path d="M352 196.421H284.168V193.584H349.157V156.309H352V196.421Z" fill="#888888"/>
<path d="M89.9762 51.3359H87.1335V0H137.568V2.84237H89.9762V51.3359Z" fill="#888888"/>
<defs>
<linearGradient id="paint0_linear" x1="156.067" y1="258.174" x2="122.541" y2="258.174" gradientUnits="userSpaceOnUse">
<stop stop-color="#3076A1"/>
<stop offset="1" stop-color="#639C38"/>
</linearGradient>
<linearGradient id="paint1_linear" x1="-462722" y1="40523.9" x2="-455871" y2="40523.9" gradientUnits="userSpaceOnUse">
<stop stop-color="#3076A1"/>
<stop offset="1" stop-color="#639C38"/>
</linearGradient>
<linearGradient id="paint2_linear" x1="-346712" y1="40246" x2="-342854" y2="40246" gradientUnits="userSpaceOnUse">
<stop stop-color="#3076A1"/>
<stop offset="1" stop-color="#639C38"/>
</linearGradient>
<linearGradient id="paint3_linear" x1="-527838" y1="82525.9" x2="-519136" y2="82525.9" gradientUnits="userSpaceOnUse">
<stop stop-color="#3076A1"/>
<stop offset="1" stop-color="#639C38"/>
</linearGradient>
<linearGradient id="paint4_linear" x1="-405247" y1="67148.6" x2="-400015" y2="67148.6" gradientUnits="userSpaceOnUse">
<stop stop-color="#3076A1"/>
<stop offset="1" stop-color="#639C38"/>
</linearGradient>
</defs>
</svg>
