<svg xmlns="http://www.w3.org/2000/svg" width="239.806" height="64.767" viewBox="0 0 239.806 64.767"><defs><style>.a,.g{fill:#4c4aa5;}.a{font-size:35px;font-family:AcuminPro-Semibold, Acumin Pro;font-weight:600;}.b{letter-spacing:0.05em;}.c{letter-spacing:0.04em;}.d{letter-spacing:0.06em;}.e{fill:#12d3d8;}.f{fill:#45f4ef;}</style></defs><g transform="translate(119.403 32.384)"><g transform="translate(-119.403 -32.384)"><text class="a" transform="matrix(1, 0.012, -0.012, 1, 53.502, 41.243)"><tspan class="b" x="0" y="0">K</tspan><tspan class="c" y="0">A</tspan><tspan class="d" y="0">RT</tspan><tspan class="b" y="0">MO</tspan><tspan y="0">N</tspan></text><path class="e" d="M103.1,201.259l10.937-6.959L136,227.8a1.559,1.559,0,0,1-1.354,2.359l-11.5.265a1.492,1.492,0,0,1-1.295-.663Z" transform="translate(-87.759 -165.655)"/><path class="f" d="M29.018,65.527l-8.05-4.143a1.885,1.885,0,0,1-.729-2.58L45.922,9.679a2.255,2.255,0,0,1,1.131-1l13.7-6.487a1.651,1.651,0,0,1,1.22-.1,1.871,1.871,0,0,1,.982,2.683L31.577,64.643a1.932,1.932,0,0,1-2.544.9" transform="translate(-17.024 -1.719)"/><path class="g" d="M12.633,64.7H2.128A1.976,1.976,0,0,1,0,62.934V7.129A1.693,1.693,0,0,1,.863,5.7L11.354.362c1.414-.87,3.408-.029,3.408,1.43V62.934A1.966,1.966,0,0,1,12.633,64.7" transform="translate(0 -0.01)"/></g></g></svg>