<svg xmlns="http://www.w3.org/2000/svg" width="19.291" height="21.214" viewBox="0 0 19.291 21.214"><defs><style>.a{fill:#bcbccb;stroke:#bcbccb;stroke-width:0.7px;}</style></defs><g transform="translate(-786.855 -85.65)"><path class="a" d="M9.616,20.193V14.1c0-.177-.085-.641-.262-.641a.376.376,0,0,0-.379.321v6.41a.375.375,0,0,0,.379.321C9.531,20.514,9.616,20.37,9.616,20.193ZM9.674,1V.321a.321.321,0,0,0-.641,0V1a.321.321,0,1,0,.641,0ZM2.494,2.225.207,4.019A.641.641,0,0,0,0,4.487a.654.654,0,0,0,.227.486l2.247,1.76a1.348,1.348,0,0,0,.816.319h8.864a.665.665,0,0,0,.667-.662v-3.8a.665.665,0,0,0-.667-.662H3.29a1.33,1.33,0,0,0-.8.3ZM12.18,6.389a.025.025,0,0,1-.026.021H3.29a.731.731,0,0,1-.4-.165L.622,4.506,2.908,2.712a.725.725,0,0,1,.381-.148l8.89.021v3.8Zm3.937,1.622a1.348,1.348,0,0,0-.816-.319H6.436a.665.665,0,0,0-.667.662v3.8a.665.665,0,0,0,.667.662H15.3a1.333,1.333,0,0,0,.8-.3l2.286-1.794a.641.641,0,0,0,.207-.469.654.654,0,0,0-.227-.486l-2.247-1.76ZM6.41,8.334H15.3a.731.731,0,0,1,.4.165l2.267,1.739-2.286,1.794a.725.725,0,0,1-.381.148H6.41V8.334Z" transform="translate(787.205 86)"/></g></svg>